<svg width="25" height="25" viewBox="0 0 25 25" fill="none" xmlns="http://www.w3.org/2000/svg">
<path d="M22.9333 10.5688L13.2365 1.64793C12.9305 1.36528 12.529 1.20864 12.1125 1.20938C11.6542 1.20938 11.2385 1.3948 10.9385 1.69584L1.5625 11.0719V24.2188H10.1562V16.0156H14.8437V24.2188H23.4375V11.0333L22.9333 10.5688ZM21.875 22.6563H16.4062V16.0156C16.4062 15.6012 16.2416 15.2038 15.9486 14.9108C15.6556 14.6178 15.2582 14.4531 14.8437 14.4531H10.1562C9.74185 14.4531 9.34442 14.6178 9.05139 14.9108C8.75837 15.2038 8.59375 15.6012 8.59375 16.0156V22.6563H3.125V11.7188L12.0427 2.80105C12.0517 2.79202 12.0624 2.78489 12.0742 2.78006C12.0861 2.77523 12.0987 2.7728 12.1115 2.77293C12.1375 2.77293 12.1604 2.7823 12.1781 2.79897L21.875 11.7198V22.6563Z" fill="#258039"/>
</svg>
