<svg width="25" height="25" viewBox="0 0 25 25" fill="none" xmlns="http://www.w3.org/2000/svg">
<path d="M6.18333 9.89584H2.53333C1.95833 9.89584 1.47708 10.2979 1.35729 10.8365L1.35625 10.8448C0.989584 12.4094 0.779167 14.2063 0.779167 16.0521C0.779167 17.7792 0.963542 19.4635 1.3125 21.0854L1.28438 20.9292L1.35729 21.2802C1.41513 21.5526 1.5645 21.797 1.78056 21.9727C1.99662 22.1484 2.26632 22.2448 2.54479 22.2458H6.18542C6.50682 22.2453 6.81491 22.1174 7.04218 21.8901C7.26944 21.6628 7.39737 21.3547 7.39792 21.0333V11.1083C7.39764 10.7869 7.26981 10.4786 7.04248 10.2513C6.81515 10.024 6.50691 9.89612 6.18542 9.89584H6.18333ZM5.83333 20.6844H2.82708L2.8125 20.6115C2.49415 19.113 2.33562 17.585 2.33958 16.0531C2.33958 14.4261 2.51458 12.8396 2.84688 11.3115L2.81979 11.4583H5.83333V20.6844Z" fill="#258039"/>
<path d="M24.1437 13.5396L23.0656 10.6635C22.9805 10.4388 22.8291 10.2452 22.6316 10.1083C22.4341 9.97146 22.1997 9.89773 21.9594 9.89688H16.2115V8.45521L16.6792 7.41979C16.9121 6.90391 17.041 6.34714 17.0584 5.78138C17.0759 5.21561 16.9816 4.65196 16.7809 4.1227C16.5802 3.59343 16.2771 3.10895 15.8889 2.69698C15.5008 2.28501 15.0352 1.95365 14.5187 1.72188L14.4917 1.71146C14.2085 1.58806 13.8883 1.57996 13.5993 1.68889C13.3102 1.79782 13.0751 2.01519 12.9437 2.29479L12.9406 2.30209L9.01875 10.8865V12.1104H10.1771L14.1948 3.31563C14.7642 3.66732 15.1855 4.21492 15.3794 4.85545C15.5733 5.49597 15.5266 6.18529 15.2479 6.79375L15.2552 6.77709L14.7187 7.96563L14.65 8.2875V10.6792L15.4312 11.4604H21.6958L22.6573 14.025V14.4781L19.3375 20.3125H13.2365L9.01875 17.8385V19.65L12.5344 21.7125C12.7052 21.8146 12.9125 21.875 13.1323 21.875H19.5583C19.9958 21.875 20.3781 21.6365 20.5823 21.2833L20.5854 21.2781L24.0646 15.1635C24.1615 14.9958 24.2187 14.7938 24.2187 14.5792V13.9563V13.9552C24.2187 13.8063 24.1906 13.6635 24.1406 13.5333L24.1437 13.5417V13.5396Z" fill="#258039"/>
</svg>
