<svg width="25" height="25" viewBox="0 0 25 25" fill="none" xmlns="http://www.w3.org/2000/svg">
<path d="M12.399 6.23019C11.7809 6.23019 11.1767 6.41347 10.6628 6.75685C10.1489 7.10023 9.74836 7.58829 9.51183 8.15931C9.27531 8.73033 9.21342 9.35866 9.334 9.96485C9.45458 10.571 9.75221 11.1279 10.1892 11.5649C10.6263 12.0019 11.1831 12.2996 11.7893 12.4201C12.3955 12.5407 13.0238 12.4788 13.5948 12.2423C14.1659 12.0058 14.6539 11.6053 14.9973 11.0914C15.3407 10.5774 15.524 9.97326 15.524 9.35519C15.5229 8.52673 15.1933 7.73252 14.6074 7.1467C14.0216 6.56089 13.2274 6.2313 12.399 6.23019ZM12.399 10.9177C12.0899 10.9177 11.7878 10.8261 11.5309 10.6544C11.2739 10.4827 11.0737 10.2386 10.9554 9.95314C10.8371 9.66763 10.8062 9.35346 10.8665 9.05037C10.9268 8.74727 11.0756 8.46886 11.2941 8.25034C11.5126 8.03182 11.791 7.88301 12.0941 7.82272C12.3972 7.76243 12.7114 7.79337 12.9969 7.91163C13.2824 8.02989 13.5264 8.23016 13.6981 8.48712C13.8698 8.74407 13.9615 9.04616 13.9615 9.35519C13.9609 9.76943 13.7961 10.1665 13.5032 10.4594C13.2103 10.7523 12.8132 10.9171 12.399 10.9177Z" fill="#258039"/>
<path d="M20.8448 8.46876C20.3833 4.17396 16.7781 0.858337 12.3979 0.858337C10.8651 0.858117 9.36087 1.27272 8.04465 2.05819C6.72842 2.84365 5.6493 3.97069 4.92173 5.31979C4.19417 6.66888 3.84527 8.18973 3.91205 9.72105C3.97883 11.2524 4.45879 12.7371 5.30104 14.0177L5.28125 13.9854L11.1854 23.049C11.3167 23.2498 11.4959 23.4149 11.7067 23.5293C11.9176 23.6438 12.1537 23.704 12.3936 23.7046C12.6336 23.7053 12.8699 23.6462 13.0814 23.5329C13.2929 23.4195 13.4729 23.2554 13.6052 23.0552L13.6083 23.05L19.5125 13.9865C20.4147 12.6069 20.8931 10.9932 20.8885 9.3448C20.8885 9.03646 20.8719 8.7323 20.8406 8.4323L20.8437 8.4698L20.8448 8.46876ZM18.2052 13.1323L12.399 22.0458L6.59271 13.1323C5.73118 11.7987 5.35134 10.2106 5.51617 8.63149C5.681 7.05236 6.38059 5.57699 7.49896 4.45C8.75312 3.19584 10.4854 2.4198 12.399 2.4198C14.3125 2.4198 16.0448 3.19584 17.299 4.45C18.4173 5.57699 19.1169 7.05236 19.2817 8.63149C19.4466 10.2106 19.0667 11.7987 18.2052 13.1323Z" fill="#258039"/>
</svg>
