<svg width="25" height="25" viewBox="0 0 25 25" fill="none" xmlns="http://www.w3.org/2000/svg">
<path d="M20.0979 16.7802L16.5417 14.4688L17.8823 12.0115C18.1967 11.4381 18.3608 10.7945 18.3594 10.1406V6.25C18.3594 5.53183 18.2179 4.8207 17.9431 4.1572C17.6683 3.4937 17.2654 2.89083 16.7576 2.38301C16.2498 1.87519 15.6469 1.47236 14.9834 1.19753C14.3199 0.922703 13.6088 0.78125 12.8906 0.78125C12.1725 0.78125 11.4613 0.922703 10.7978 1.19753C10.1343 1.47236 9.53145 1.87519 9.02363 2.38301C8.51581 2.89083 8.11299 3.4937 7.83816 4.1572C7.56333 4.8207 7.42187 5.53183 7.42187 6.25V10.1406C7.42292 10.826 7.59896 11.4708 7.90937 12.0312L7.89896 12.0115L9.23958 14.4688L5.68333 16.7802C5.13816 17.1335 4.68999 17.6176 4.37962 18.1883C4.06924 18.759 3.90652 19.3983 3.90625 20.0479V24.2188H21.875V20.0552V20.0479C21.8754 19.4011 21.7144 18.7643 21.4067 18.1954C21.0989 17.6264 20.6541 17.1432 20.1125 16.7896L20.0979 16.7802ZM20.3125 22.6562H5.46875V20.0552V20.051C5.46847 19.6629 5.565 19.2809 5.74962 18.9395C5.93424 18.598 6.2011 18.3081 6.52604 18.0958L6.53542 18.0906L11.3042 14.9906L9.27083 11.2635C9.08222 10.9197 8.98368 10.5338 8.98438 10.1417V6.25104C8.98438 5.21504 9.39593 4.22147 10.1285 3.48891C10.8611 2.75634 11.8546 2.34479 12.8906 2.34479C13.9266 2.34479 14.9202 2.75634 15.6528 3.48891C16.3853 4.22147 16.7969 5.21504 16.7969 6.25104V10.1417C16.7969 10.5531 16.6906 10.9396 16.5042 11.276L16.5104 11.2635L14.4771 14.9917L19.2458 18.0917C19.573 18.3036 19.8419 18.594 20.0282 18.9363C20.2145 19.2787 20.3123 19.6623 20.3125 20.0521V20.0562V22.6562Z" fill="#258039"/>
</svg>
