<svg width="25" height="25" viewBox="0 0 25 25" fill="none" xmlns="http://www.w3.org/2000/svg">
<path d="M2.34375 2.34375H8.59375V0.78125H0.78125V8.59375H2.34375V2.34375Z" fill="#258039"/>
<path d="M8.59375 8.59375V3.90625H3.90625V8.59375H8.59375ZM5.46875 5.46875H7.03125V7.03125H5.46875V5.46875Z" fill="#258039"/>
<path d="M16.0156 0.78125V2.34375H22.6562V8.59375H24.2188V0.78125H16.0156Z" fill="#258039"/>
<path d="M21.0938 8.59375V3.90625H16.4062V8.59375H21.0938ZM17.9688 5.46875H19.5312V7.03125H17.9688V5.46875Z" fill="#258039"/>
<path d="M2.34375 16.4062H0.78125V24.2187H8.59375V22.6562H2.34375V16.4062Z" fill="#258039"/>
<path d="M5.46875 16.4062H3.90625V21.0938H8.59375V16.4062H5.46875ZM7.03125 19.5312H5.46875V17.9688H7.03125V19.5312Z" fill="#258039"/>
<path d="M22.6562 22.6562H16.0156V24.2187H24.2188V16.4062H22.6562V22.6562Z" fill="#258039"/>
<path d="M13.2812 14.8438H19.5312V17.9688H21.0937V13.2812H13.2812V14.8438Z" fill="#258039"/>
<path d="M21.0938 21.0937V19.5312H11.7187V13.2812H3.90625V14.8438H10.1562V21.0937H21.0938Z" fill="#258039"/>
<path d="M10.1562 3.90625H11.7188V8.59375H10.1562V3.90625Z" fill="#258039"/>
<path d="M3.90625 11.7187H14.8438V3.90625H13.2812V10.1562H3.90625V11.7187Z" fill="#258039"/>
<path d="M16.4062 10.1562H21.0938V11.7188H16.4062V10.1562Z" fill="#258039"/>
<path d="M16.4062 16.4062H17.9688V17.9688H16.4062V16.4062Z" fill="#258039"/>
<path d="M13.2812 16.4062H14.8438V17.9688H13.2812V16.4062Z" fill="#258039"/>
</svg>
